<?xml version="1.0" encoding="utf-8"?>
<!-- Generator: Adobe Illustrator 16.0.0, SVG Export Plug-In . SVG Version: 6.00 Build 0)  -->
<!DOCTYPE svg PUBLIC "-//W3C//DTD SVG 1.1//EN" "http://www.w3.org/Graphics/SVG/1.1/DTD/svg11.dtd">
<svg version="1.1" id="Layer_1" xmlns="http://www.w3.org/2000/svg" xmlns:xlink="http://www.w3.org/1999/xlink" x="0px" y="0px"
	 width="841.89px" height="595.28px" viewBox="0 0 841.89 595.28" enable-background="new 0 0 841.89 595.28" xml:space="preserve">
<g>
	<path fill="#042C74" d="M315.262,264.001c-18.577,0-33.639,15.062-33.639,33.639c0,18.578,15.062,33.639,33.639,33.639
		c18.58,0,33.64-15.061,33.64-33.639C348.902,279.063,333.842,264.001,315.262,264.001z M289.398,309.386l24.52-31.653l10.67,13.844
		l-4.749,5.921l-5.921-7.601l-15.316,19.488H289.398z M316.607,317.547l-10.746-13.893l4.918-5.897l5.827,7.627l15.316-19.488h9.205
		L316.607,317.547z"/>
	<g>
		<g>
			<path fill="#042C74" d="M388.007,274.759v32.007h-6.083l-15.958-19.433v19.433h-7.314v-32.007h6.126l15.911,19.433v-19.433
				H388.007z"/>
			<path fill="#042C74" d="M410.958,305.576c-0.702,0.52-1.562,0.908-2.583,1.166c-1.022,0.259-2.097,0.389-3.225,0.389
				c-2.926,0-5.189-0.748-6.788-2.24c-1.603-1.493-2.402-3.688-2.402-6.585v-10.104h-3.793v-5.487h3.793v-5.988h7.133v5.988h6.126
				v5.487h-6.126v10.013c0,1.036,0.267,1.839,0.799,2.402c0.535,0.563,1.289,0.845,2.264,0.845c1.128,0,2.088-0.304,2.881-0.914
				L410.958,305.576z"/>
			<path fill="#042C74" d="M415.349,277.595c-0.823-0.763-1.233-1.708-1.233-2.836c0-1.127,0.411-2.073,1.233-2.835
				c0.822-0.761,1.889-1.143,3.2-1.143c1.313,0,2.378,0.365,3.201,1.098c0.823,0.732,1.233,1.645,1.233,2.743
				c0,1.188-0.41,2.171-1.233,2.949s-1.889,1.167-3.201,1.167C417.238,278.737,416.171,278.356,415.349,277.595z M414.982,282.166
				h7.133v24.6h-7.133V282.166z"/>
			<path fill="#042C74" d="M467.589,284.521c1.812,1.814,2.72,4.535,2.72,8.163v14.082h-7.133v-12.987
				c0-1.95-0.404-3.404-1.213-4.366c-0.807-0.961-1.958-1.44-3.452-1.44c-1.678,0-3.003,0.541-3.979,1.625
				c-0.975,1.081-1.463,2.69-1.463,4.823v12.346h-7.134v-12.987c0-3.87-1.555-5.807-4.664-5.807c-1.643,0-2.955,0.541-3.93,1.625
				c-0.978,1.081-1.465,2.69-1.465,4.823v12.346h-7.133v-24.6h6.813v2.836c0.914-1.036,2.035-1.829,3.36-2.378
				s2.783-0.823,4.367-0.823c1.737,0,3.306,0.343,4.711,1.027c1.399,0.687,2.53,1.686,3.382,2.995
				c1.006-1.279,2.277-2.27,3.817-2.97c1.54-0.701,3.224-1.052,5.053-1.052C463.326,281.801,465.772,282.707,467.589,284.521z"/>
			<path fill="#042C74" d="M497.49,283.377c1.875,1.053,3.344,2.532,4.413,4.435c1.067,1.905,1.6,4.123,1.6,6.653
				c0,2.531-0.532,4.748-1.6,6.654c-1.069,1.904-2.538,3.383-4.413,4.436c-1.876,1.051-3.956,1.576-6.24,1.576
				c-3.383,0-5.962-1.067-7.729-3.201v2.836h-6.813V272.84h7.134v11.933c1.798-1.981,4.268-2.972,7.409-2.972
				C493.534,281.801,495.614,282.325,497.49,283.377z M494.518,299.428c1.174-1.236,1.757-2.89,1.757-4.962
				c0-2.072-0.583-3.726-1.757-4.959c-1.175-1.236-2.674-1.854-4.504-1.854c-1.826,0-3.331,0.618-4.503,1.854
				c-1.174,1.233-1.76,2.887-1.76,4.959c0,2.073,0.586,3.727,1.76,4.962c1.172,1.233,2.677,1.852,4.503,1.852
				C491.844,301.279,493.343,300.661,494.518,299.428z"/>
			<path fill="#042C74" d="M526.55,284.521c2.039,1.814,3.063,4.549,3.063,8.208v14.037h-6.675v-3.064
				c-1.344,2.287-3.841,3.43-7.499,3.43c-1.889,0-3.531-0.319-4.915-0.959c-1.387-0.643-2.449-1.525-3.178-2.652
				c-0.732-1.129-1.098-2.408-1.098-3.841c0-2.286,0.859-4.086,2.581-5.396c1.725-1.312,4.381-1.966,7.98-1.966h5.67
				c0-1.556-0.474-2.749-1.418-3.588s-2.364-1.257-4.252-1.257c-1.31,0-2.6,0.206-3.863,0.616c-1.264,0.412-2.341,0.969-3.222,1.669
				l-2.565-4.984c1.346-0.945,2.952-1.677,4.827-2.195c1.876-0.519,3.803-0.777,5.782-0.777
				C521.578,281.801,524.508,282.707,526.55,284.521z M520.466,301.483c0.946-0.563,1.614-1.394,2.014-2.492v-2.515h-4.893
				c-2.927,0-4.393,0.959-4.393,2.883c0,0.912,0.36,1.639,1.077,2.17c0.717,0.533,1.699,0.8,2.95,0.8
				C518.439,302.329,519.521,302.049,520.466,301.483z"/>
		</g>
		<g>
			<path fill="#042C74" d="M360.466,324.088c-0.783-0.272-1.388-0.635-1.815-1.084l0.476-0.936c0.416,0.416,0.97,0.754,1.659,1.01
				c0.689,0.258,1.401,0.386,2.135,0.386c1.029,0,1.801-0.188,2.315-0.567c0.515-0.377,0.771-0.867,0.771-1.469
				c0-0.46-0.139-0.826-0.418-1.1c-0.279-0.273-0.622-0.484-1.027-0.633c-0.404-0.147-0.968-0.309-1.691-0.484
				c-0.865-0.219-1.554-0.43-2.068-0.631c-0.516-0.204-0.956-0.514-1.323-0.93s-0.55-0.979-0.55-1.691
				c0-0.578,0.154-1.108,0.461-1.584c0.306-0.477,0.776-0.855,1.412-1.142c0.634-0.285,1.422-0.427,2.364-0.427
				c0.657,0,1.301,0.09,1.93,0.271c0.629,0.18,1.173,0.43,1.634,0.746l-0.411,0.969c-0.482-0.317-0.997-0.555-1.544-0.714
				c-0.547-0.159-1.083-0.237-1.609-0.237c-1.007,0-1.764,0.193-2.273,0.582c-0.51,0.39-0.765,0.89-0.765,1.502
				c0,0.461,0.141,0.83,0.419,1.109c0.279,0.279,0.63,0.492,1.05,0.641c0.422,0.148,0.989,0.309,1.7,0.484
				c0.843,0.209,1.524,0.413,2.044,0.616c0.521,0.202,0.961,0.509,1.323,0.919c0.361,0.41,0.541,0.967,0.541,1.666
				c0,0.582-0.156,1.109-0.467,1.586c-0.312,0.477-0.792,0.854-1.438,1.133s-1.439,0.418-2.381,0.418
				C362.066,324.498,361.248,324.361,360.466,324.088z"/>
			<path fill="#042C74" d="M375.885,323.736c-0.925-0.51-1.648-1.207-2.167-2.096c-0.521-0.887-0.781-1.883-0.781-2.988
				s0.26-2.102,0.781-2.988c0.519-0.888,1.242-1.585,2.167-2.094c0.926-0.51,1.957-0.764,3.096-0.764
				c1.14,0,2.166,0.252,3.079,0.756c0.915,0.504,1.635,1.201,2.161,2.093c0.524,0.893,0.787,1.892,0.787,2.997
				s-0.262,2.104-0.787,2.998c-0.526,0.893-1.246,1.59-2.161,2.094c-0.914,0.504-1.939,0.754-3.079,0.754
				C377.842,324.498,376.812,324.246,375.885,323.736z M381.445,322.8c0.733-0.412,1.309-0.979,1.725-1.708
				c0.416-0.728,0.624-1.541,0.624-2.439s-0.208-1.711-0.624-2.438c-0.416-0.729-0.992-1.298-1.725-1.709
				c-0.734-0.41-1.554-0.616-2.464-0.616c-0.908,0-1.732,0.206-2.472,0.616c-0.738,0.411-1.319,0.98-1.74,1.709
				c-0.422,0.727-0.633,1.539-0.633,2.438s0.211,1.712,0.633,2.439c0.421,0.729,1.002,1.296,1.74,1.708
				c0.74,0.409,1.563,0.615,2.472,0.615C379.891,323.415,380.71,323.209,381.445,322.8z"/>
			<path fill="#042C74" d="M393.055,313.957v4.516H399v1.051h-5.945v4.877h-1.215v-11.496h7.883v1.053H393.055z"/>
			<path fill="#042C74" d="M408.656,313.957h-4.04v-1.053h9.295v1.053h-4.04V324.4h-1.215V313.957z"/>
			<path fill="#042C74" d="M435.654,312.904l-3.876,11.496h-1.281l-3.366-9.805l-3.382,9.805h-1.266l-3.876-11.496h1.248
				l3.317,9.887l3.433-9.887h1.133l3.383,9.937l3.367-9.937H435.654z"/>
			<path fill="#042C74" d="M448.84,321.328h-6.401l-1.382,3.072h-1.264l5.255-11.496h1.198l5.255,11.496h-1.279L448.84,321.328z
				 M448.397,320.345l-2.758-6.175l-2.761,6.175H448.397z"/>
			<path fill="#042C74" d="M465.36,324.4l-2.628-3.695c-0.294,0.033-0.601,0.049-0.918,0.049h-3.089v3.646h-1.212v-11.496h4.301
				c1.466,0,2.617,0.352,3.448,1.053c0.832,0.699,1.249,1.664,1.249,2.889c0,0.898-0.228,1.656-0.684,2.275
				c-0.452,0.619-1.103,1.064-1.944,1.338l2.81,3.941H465.36z M464.394,318.965c0.601-0.503,0.902-1.211,0.902-2.119
				c0-0.93-0.302-1.644-0.902-2.143c-0.602-0.498-1.472-0.746-2.612-0.746h-3.056v5.764h3.056
				C462.922,319.721,463.792,319.469,464.394,318.965z"/>
			<path fill="#042C74" d="M481.619,323.35v1.051h-8.128v-11.496h7.883v1.053h-6.668v4.088h5.946v1.035h-5.946v4.27H481.619z"/>
		</g>
	</g>
</g>
</svg>
